<svg width="512" height="512" viewBox="0 0 512 512" fill="none" xmlns="http://www.w3.org/2000/svg">
<g clip-path="url(#clip0_66_2)">
<path d="M0 0H466C491.405 0 512 20.5949 512 46V466C512 491.405 491.405 512 466 512H46C20.5949 512 0 491.405 0 466V0Z" fill="#2D2D2D"/>
<path d="M217.248 393.617C240.488 393.617 259.669 391.229 274.791 386.454C290.072 381.52 302.17 373.72 311.084 363.055C319.998 352.39 326.206 337.984 329.708 319.837C333.369 301.691 335.2 278.849 335.2 251.311C335.2 228.866 333.608 209.526 330.424 193.29C327.4 177.053 321.988 163.523 314.188 152.699C306.547 141.715 296.201 133.438 283.148 127.867C270.095 122.295 253.7 119.51 233.961 119.51H169.016V393.617H217.248ZM123.172 428V84.8882H221.545C234.917 84.8882 248.049 85.6045 260.942 87.0371C273.995 88.3105 286.411 91.0962 298.19 95.394C309.97 99.5327 320.794 105.343 330.663 112.824C340.691 120.146 349.367 129.856 356.689 141.954C364.011 153.893 369.742 168.537 373.88 185.888C378.019 203.238 380.088 224.409 380.088 249.4C380.088 276.461 377.939 300.895 373.642 322.703C369.503 344.51 361.942 363.373 350.958 379.291C339.975 395.05 324.853 407.147 305.592 415.584C286.491 423.861 262.057 428 232.29 428H123.172Z" fill="#2972FF"/>
<path d="M241.248 393.617C264.488 393.617 283.669 391.229 298.791 386.454C314.072 381.52 326.17 373.72 335.084 363.055C343.998 352.39 350.206 337.984 353.708 319.837C357.369 301.691 359.2 278.849 359.2 251.311C359.2 228.866 357.608 209.526 354.424 193.29C351.4 177.053 345.988 163.523 338.188 152.699C330.547 141.715 320.201 133.438 307.148 127.867C294.095 122.295 277.7 119.51 257.961 119.51H193.016V393.617H241.248ZM147.172 428V84.8882H245.545C258.917 84.8882 272.049 85.6045 284.942 87.0371C297.995 88.3105 310.411 91.0962 322.19 95.394C333.97 99.5327 344.794 105.343 354.663 112.824C364.691 120.146 373.367 129.856 380.689 141.954C388.011 153.893 393.742 168.537 397.88 185.888C402.019 203.238 404.088 224.409 404.088 249.4C404.088 276.461 401.939 300.895 397.642 322.703C393.503 344.51 385.942 363.373 374.958 379.291C363.975 395.05 348.853 407.147 329.592 415.584C310.491 423.861 286.057 428 256.29 428H147.172Z" fill="white"/>
</g>
<path d="M3 3H466C489.748 3 509 22.2518 509 46V466C509 489.748 489.748 509 466 509H46C22.2518 509 3 489.748 3 466V3Z" stroke="#3175F8" stroke-width="6"/>
<defs>
<clipPath id="clip0_66_2">
<path d="M0 0H466C491.405 0 512 20.5949 512 46V466C512 491.405 491.405 512 466 512H46C20.5949 512 0 491.405 0 466V0Z" fill="white"/>
</clipPath>
</defs>
</svg>
